# xmcd CD database file
#
# Track frame offsets:
#	150
#	41219
#	62254
#	84885
#	110028
#	146728
#	170862
#	198891
#
# Disc length: 3178 seconds
#
# Revision: 0
# Processed by: cddbd v1.5.2PL0 Copyright (c) Steve Scherf et al.
# Submitted via: CDex 1.51
#
DISCID=6d0c6808
DTITLE=Dan Gibson - Mediterranean Spa
DYEAR=2009
DGENRE=New Age
TTITLE0=The Shimmering Sea
TTITLE1=Infinite Reflection
TTITLE2=Touch The Senses
TTITLE3=Awakening Venus
TTITLE4=Dreaming In Blue
TTITLE5=Peaceful Tides
TTITLE6=Aphrodite's Garden
TTITLE7=Mediterranea
EXTD=YEAR: 2009
EXTT0=
EXTT1=
EXTT2=
EXTT3=
EXTT4=
EXTT5=
EXTT6=
EXTT7=
PLAYORDER=
